<mxfile host="65bd71144e">
    <diagram id="uY-WBFotGh_KkLAZrjns" name="Standard">
        <mxGraphModel dx="1031" dy="459" grid="0" gridSize="10" guides="1" tooltips="1" connect="1" arrows="1" fold="1" page="1" pageScale="1" pageWidth="827" pageHeight="1169" math="0" shadow="0">
            <root>
                <mxCell id="0"/>
                <mxCell id="1" parent="0"/>
                <mxCell id="2" value="Originator" style="swimlane;fontStyle=1;align=center;verticalAlign=top;childLayout=stackLayout;horizontal=1;startSize=26;horizontalStack=0;resizeParent=1;resizeParentMax=0;resizeLast=0;collapsible=1;marginBottom=0;" parent="1" vertex="1">
                    <mxGeometry x="95" y="230" width="160" height="112" as="geometry"/>
                </mxCell>
                <mxCell id="3" value="- state" style="text;strokeColor=none;fillColor=none;align=left;verticalAlign=top;spacingLeft=4;spacingRight=4;overflow=hidden;rotatable=0;points=[[0,0.5],[1,0.5]];portConstraint=eastwest;" parent="2" vertex="1">
                    <mxGeometry y="26" width="160" height="26" as="geometry"/>
                </mxCell>
                <mxCell id="4" value="" style="line;strokeWidth=1;fillColor=none;align=left;verticalAlign=middle;spacingTop=-1;spacingLeft=3;spacingRight=3;rotatable=0;labelPosition=right;points=[];portConstraint=eastwest;" parent="2" vertex="1">
                    <mxGeometry y="52" width="160" height="8" as="geometry"/>
                </mxCell>
                <mxCell id="5" value="+ save(): Memento" style="text;strokeColor=none;fillColor=none;align=left;verticalAlign=top;spacingLeft=4;spacingRight=4;overflow=hidden;rotatable=0;points=[[0,0.5],[1,0.5]];portConstraint=eastwest;" parent="2" vertex="1">
                    <mxGeometry y="60" width="160" height="26" as="geometry"/>
                </mxCell>
                <mxCell id="6" value="+ restore(m: Memento)" style="text;strokeColor=none;fillColor=none;align=left;verticalAlign=top;spacingLeft=4;spacingRight=4;overflow=hidden;rotatable=0;points=[[0,0.5],[1,0.5]];portConstraint=eastwest;" parent="2" vertex="1">
                    <mxGeometry y="86" width="160" height="26" as="geometry"/>
                </mxCell>
                <mxCell id="7" value="Memento" style="swimlane;fontStyle=1;align=center;verticalAlign=top;childLayout=stackLayout;horizontal=1;startSize=26;horizontalStack=0;resizeParent=1;resizeParentMax=0;resizeLast=0;collapsible=1;marginBottom=0;" parent="1" vertex="1">
                    <mxGeometry x="297" y="230" width="160" height="112" as="geometry"/>
                </mxCell>
                <mxCell id="8" value="- state" style="text;strokeColor=none;fillColor=none;align=left;verticalAlign=top;spacingLeft=4;spacingRight=4;overflow=hidden;rotatable=0;points=[[0,0.5],[1,0.5]];portConstraint=eastwest;" parent="7" vertex="1">
                    <mxGeometry y="26" width="160" height="26" as="geometry"/>
                </mxCell>
                <mxCell id="9" value="" style="line;strokeWidth=1;fillColor=none;align=left;verticalAlign=middle;spacingTop=-1;spacingLeft=3;spacingRight=3;rotatable=0;labelPosition=right;points=[];portConstraint=eastwest;" parent="7" vertex="1">
                    <mxGeometry y="52" width="160" height="8" as="geometry"/>
                </mxCell>
                <mxCell id="10" value="- Memento(state)" style="text;strokeColor=none;fillColor=none;align=left;verticalAlign=top;spacingLeft=4;spacingRight=4;overflow=hidden;rotatable=0;points=[[0,0.5],[1,0.5]];portConstraint=eastwest;" parent="7" vertex="1">
                    <mxGeometry y="60" width="160" height="26" as="geometry"/>
                </mxCell>
                <mxCell id="11" value="- getState()" style="text;strokeColor=none;fillColor=none;align=left;verticalAlign=top;spacingLeft=4;spacingRight=4;overflow=hidden;rotatable=0;points=[[0,0.5],[1,0.5]];portConstraint=eastwest;" parent="7" vertex="1">
                    <mxGeometry y="86" width="160" height="26" as="geometry"/>
                </mxCell>
                <mxCell id="12" style="edgeStyle=none;html=1;exitX=1;exitY=0.5;exitDx=0;exitDy=0;entryX=0;entryY=0.5;entryDx=0;entryDy=0;dashed=1;endArrow=open;endFill=0;" parent="1" source="3" target="8" edge="1">
                    <mxGeometry relative="1" as="geometry"/>
                </mxCell>
                <mxCell id="14" value="Caretaker" style="swimlane;fontStyle=1;align=center;verticalAlign=top;childLayout=stackLayout;horizontal=1;startSize=26;horizontalStack=0;resizeParent=1;resizeParentMax=0;resizeLast=0;collapsible=1;marginBottom=0;" parent="1" vertex="1">
                    <mxGeometry x="525" y="204" width="160" height="138" as="geometry"/>
                </mxCell>
                <mxCell id="19" value="- originator" style="text;strokeColor=none;fillColor=none;align=left;verticalAlign=top;spacingLeft=4;spacingRight=4;overflow=hidden;rotatable=0;points=[[0,0.5],[1,0.5]];portConstraint=eastwest;" parent="14" vertex="1">
                    <mxGeometry y="26" width="160" height="26" as="geometry"/>
                </mxCell>
                <mxCell id="15" value="- history: Memento[]" style="text;strokeColor=none;fillColor=none;align=left;verticalAlign=top;spacingLeft=4;spacingRight=4;overflow=hidden;rotatable=0;points=[[0,0.5],[1,0.5]];portConstraint=eastwest;" parent="14" vertex="1">
                    <mxGeometry y="52" width="160" height="26" as="geometry"/>
                </mxCell>
                <mxCell id="16" value="" style="line;strokeWidth=1;fillColor=none;align=left;verticalAlign=middle;spacingTop=-1;spacingLeft=3;spacingRight=3;rotatable=0;labelPosition=right;points=[];portConstraint=eastwest;" parent="14" vertex="1">
                    <mxGeometry y="78" width="160" height="8" as="geometry"/>
                </mxCell>
                <mxCell id="20" value="+ doSomething()" style="text;strokeColor=none;fillColor=none;align=left;verticalAlign=top;spacingLeft=4;spacingRight=4;overflow=hidden;rotatable=0;points=[[0,0.5],[1,0.5]];portConstraint=eastwest;" parent="14" vertex="1">
                    <mxGeometry y="86" width="160" height="26" as="geometry"/>
                </mxCell>
                <mxCell id="18" value="+ undo()" style="text;strokeColor=none;fillColor=none;align=left;verticalAlign=top;spacingLeft=4;spacingRight=4;overflow=hidden;rotatable=0;points=[[0,0.5],[1,0.5]];portConstraint=eastwest;" parent="14" vertex="1">
                    <mxGeometry y="112" width="160" height="26" as="geometry"/>
                </mxCell>
                <mxCell id="21" style="edgeStyle=none;html=1;exitX=0;exitY=0.5;exitDx=0;exitDy=0;entryX=1;entryY=0.5;entryDx=0;entryDy=0;endArrow=open;endFill=0;startArrow=diamondThin;startFill=0;" parent="1" source="15" target="8" edge="1">
                    <mxGeometry relative="1" as="geometry"/>
                </mxCell>
                <mxCell id="22" value="m = history,pop()&lt;br&gt;originator.restore(m)" style="whiteSpace=wrap;html=1;rounded=1;arcSize=50;align=center;verticalAlign=middle;strokeWidth=1;autosize=1;spacing=4;treeFolding=1;treeMoving=1;newEdgeStyle={&quot;edgeStyle&quot;:&quot;entityRelationEdgeStyle&quot;,&quot;startArrow&quot;:&quot;none&quot;,&quot;endArrow&quot;:&quot;none&quot;,&quot;segment&quot;:10,&quot;curved&quot;:1};" parent="1" vertex="1">
                    <mxGeometry x="362" y="393" width="143" height="40" as="geometry"/>
                </mxCell>
                <mxCell id="23" value="" style="edgeStyle=entityRelationEdgeStyle;startArrow=none;endArrow=none;segment=10;curved=1;exitX=0;exitY=0.5;exitDx=0;exitDy=0;" parent="1" source="18" target="22" edge="1">
                    <mxGeometry relative="1" as="geometry">
                        <mxPoint x="534" y="445" as="sourcePoint"/>
                    </mxGeometry>
                </mxCell>
                <mxCell id="24" value="m = originator.save()&lt;br&gt;history.push(m)" style="whiteSpace=wrap;html=1;rounded=1;arcSize=50;align=left;verticalAlign=middle;strokeWidth=1;autosize=1;spacing=8;treeFolding=1;treeMoving=1;newEdgeStyle={&quot;edgeStyle&quot;:&quot;entityRelationEdgeStyle&quot;,&quot;startArrow&quot;:&quot;none&quot;,&quot;endArrow&quot;:&quot;none&quot;,&quot;segment&quot;:10,&quot;curved&quot;:1};" parent="1" vertex="1">
                    <mxGeometry x="570" y="380" width="153" height="48" as="geometry"/>
                </mxCell>
                <mxCell id="25" value="" style="edgeStyle=entityRelationEdgeStyle;startArrow=none;endArrow=none;segment=10;curved=1;exitX=1;exitY=0.5;exitDx=0;exitDy=0;" parent="1" source="20" target="24" edge="1">
                    <mxGeometry relative="1" as="geometry">
                        <mxPoint x="668" y="417" as="sourcePoint"/>
                    </mxGeometry>
                </mxCell>
                <mxCell id="26" value="0...*" style="text;html=1;resizable=0;autosize=1;align=center;verticalAlign=middle;points=[];fillColor=none;strokeColor=none;rounded=0;" parent="1" vertex="1">
                    <mxGeometry x="459" y="246" width="31" height="18" as="geometry"/>
                </mxCell>
            </root>
        </mxGraphModel>
    </diagram>
    <diagram id="bcLtF3lBYHw8C0WSbBqU" name="Practice">
        <mxGraphModel dx="1031" dy="459" grid="0" gridSize="10" guides="1" tooltips="1" connect="1" arrows="1" fold="1" page="1" pageScale="1" pageWidth="827" pageHeight="1169" math="0" shadow="0">
            <root>
                <mxCell id="V3Rp2c93oEQ9oE3x-klY-0"/>
                <mxCell id="V3Rp2c93oEQ9oE3x-klY-1" parent="V3Rp2c93oEQ9oE3x-klY-0"/>
                <mxCell id="lsIKuZ3ZhRhGVmktWw1N-31" value="" style="edgeStyle=orthogonalEdgeStyle;rounded=0;html=1;dashed=1;endArrow=block;endFill=0;entryX=0.497;entryY=1.005;entryDx=0;entryDy=0;entryPerimeter=0;" parent="V3Rp2c93oEQ9oE3x-klY-1" source="V3Rp2c93oEQ9oE3x-klY-2" target="lsIKuZ3ZhRhGVmktWw1N-29" edge="1">
                    <mxGeometry relative="1" as="geometry"/>
                </mxCell>
                <mxCell id="V3Rp2c93oEQ9oE3x-klY-2" value="MissionBriefing" style="swimlane;fontStyle=1;align=center;verticalAlign=top;childLayout=stackLayout;horizontal=1;startSize=26;horizontalStack=0;resizeParent=1;resizeParentMax=0;resizeLast=0;collapsible=1;marginBottom=0;" parent="V3Rp2c93oEQ9oE3x-klY-1" vertex="1">
                    <mxGeometry x="86.5" y="462" width="160" height="190" as="geometry"/>
                </mxCell>
                <mxCell id="lsIKuZ3ZhRhGVmktWw1N-13" value="- subMissions: string[]" style="text;strokeColor=none;fillColor=none;align=left;verticalAlign=top;spacingLeft=4;spacingRight=4;overflow=hidden;rotatable=0;points=[[0,0.5],[1,0.5]];portConstraint=eastwest;" parent="V3Rp2c93oEQ9oE3x-klY-2" vertex="1">
                    <mxGeometry y="26" width="160" height="26" as="geometry"/>
                </mxCell>
                <mxCell id="V3Rp2c93oEQ9oE3x-klY-3" value="- currentIndex: number" style="text;strokeColor=none;fillColor=none;align=left;verticalAlign=top;spacingLeft=4;spacingRight=4;overflow=hidden;rotatable=0;points=[[0,0.5],[1,0.5]];portConstraint=eastwest;" parent="V3Rp2c93oEQ9oE3x-klY-2" vertex="1">
                    <mxGeometry y="52" width="160" height="26" as="geometry"/>
                </mxCell>
                <mxCell id="V3Rp2c93oEQ9oE3x-klY-4" value="" style="line;strokeWidth=1;fillColor=none;align=left;verticalAlign=middle;spacingTop=-1;spacingLeft=3;spacingRight=3;rotatable=0;labelPosition=right;points=[];portConstraint=eastwest;" parent="V3Rp2c93oEQ9oE3x-klY-2" vertex="1">
                    <mxGeometry y="78" width="160" height="8" as="geometry"/>
                </mxCell>
                <mxCell id="lsIKuZ3ZhRhGVmktWw1N-14" value="+ isDone(): boolean" style="text;strokeColor=none;fillColor=none;align=left;verticalAlign=top;spacingLeft=4;spacingRight=4;overflow=hidden;rotatable=0;points=[[0,0.5],[1,0.5]];portConstraint=eastwest;" parent="V3Rp2c93oEQ9oE3x-klY-2" vertex="1">
                    <mxGeometry y="86" width="160" height="26" as="geometry"/>
                </mxCell>
                <mxCell id="lsIKuZ3ZhRhGVmktWw1N-1" value="+ commenceCurrentStep()" style="text;strokeColor=none;fillColor=none;align=left;verticalAlign=top;spacingLeft=4;spacingRight=4;overflow=hidden;rotatable=0;points=[[0,0.5],[1,0.5]];portConstraint=eastwest;" parent="V3Rp2c93oEQ9oE3x-klY-2" vertex="1">
                    <mxGeometry y="112" width="160" height="26" as="geometry"/>
                </mxCell>
                <mxCell id="V3Rp2c93oEQ9oE3x-klY-5" value="+ save(): Memento" style="text;strokeColor=none;fillColor=none;align=left;verticalAlign=top;spacingLeft=4;spacingRight=4;overflow=hidden;rotatable=0;points=[[0,0.5],[1,0.5]];portConstraint=eastwest;" parent="V3Rp2c93oEQ9oE3x-klY-2" vertex="1">
                    <mxGeometry y="138" width="160" height="26" as="geometry"/>
                </mxCell>
                <mxCell id="lsIKuZ3ZhRhGVmktWw1N-0" value="+ restore(m: Memento)" style="text;strokeColor=none;fillColor=none;align=left;verticalAlign=top;spacingLeft=4;spacingRight=4;overflow=hidden;rotatable=0;points=[[0,0.5],[1,0.5]];portConstraint=eastwest;" parent="V3Rp2c93oEQ9oE3x-klY-2" vertex="1">
                    <mxGeometry y="164" width="160" height="26" as="geometry"/>
                </mxCell>
                <mxCell id="lsIKuZ3ZhRhGVmktWw1N-8" value="«interface»&#10;Memento" style="swimlane;fontStyle=1;align=center;verticalAlign=top;childLayout=stackLayout;horizontal=1;startSize=41;horizontalStack=0;resizeParent=1;resizeParentMax=0;resizeLast=0;collapsible=1;marginBottom=0;" parent="V3Rp2c93oEQ9oE3x-klY-1" vertex="1">
                    <mxGeometry x="333" y="340" width="165" height="93" as="geometry"/>
                </mxCell>
                <mxCell id="lsIKuZ3ZhRhGVmktWw1N-11" value="+ getCurrentIndex(): number" style="text;strokeColor=none;fillColor=none;align=left;verticalAlign=top;spacingLeft=4;spacingRight=4;overflow=hidden;rotatable=0;points=[[0,0.5],[1,0.5]];portConstraint=eastwest;" parent="lsIKuZ3ZhRhGVmktWw1N-8" vertex="1">
                    <mxGeometry y="41" width="165" height="26" as="geometry"/>
                </mxCell>
                <mxCell id="lsIKuZ3ZhRhGVmktWw1N-19" value="+ getDate(): string" style="text;strokeColor=none;fillColor=none;align=left;verticalAlign=top;spacingLeft=4;spacingRight=4;overflow=hidden;rotatable=0;points=[[0,0.5],[1,0.5]];portConstraint=eastwest;" parent="lsIKuZ3ZhRhGVmktWw1N-8" vertex="1">
                    <mxGeometry y="67" width="165" height="26" as="geometry"/>
                </mxCell>
                <mxCell id="lsIKuZ3ZhRhGVmktWw1N-22" style="edgeStyle=orthogonalEdgeStyle;rounded=0;html=1;exitX=0.5;exitY=0;exitDx=0;exitDy=0;entryX=0.5;entryY=1;entryDx=0;entryDy=0;endArrow=block;endFill=0;dashed=1;" parent="V3Rp2c93oEQ9oE3x-klY-1" source="lsIKuZ3ZhRhGVmktWw1N-15" target="lsIKuZ3ZhRhGVmktWw1N-8" edge="1">
                    <mxGeometry relative="1" as="geometry"/>
                </mxCell>
                <mxCell id="lsIKuZ3ZhRhGVmktWw1N-15" value="ConcreteMemento" style="swimlane;fontStyle=1;align=center;verticalAlign=top;childLayout=stackLayout;horizontal=1;startSize=26;horizontalStack=0;resizeParent=1;resizeParentMax=0;resizeLast=0;collapsible=1;marginBottom=0;" parent="V3Rp2c93oEQ9oE3x-klY-1" vertex="1">
                    <mxGeometry x="333" y="498" width="166" height="138" as="geometry"/>
                </mxCell>
                <mxCell id="lsIKuZ3ZhRhGVmktWw1N-16" value="- currentIndex: number" style="text;strokeColor=none;fillColor=none;align=left;verticalAlign=top;spacingLeft=4;spacingRight=4;overflow=hidden;rotatable=0;points=[[0,0.5],[1,0.5]];portConstraint=eastwest;" parent="lsIKuZ3ZhRhGVmktWw1N-15" vertex="1">
                    <mxGeometry y="26" width="166" height="26" as="geometry"/>
                </mxCell>
                <mxCell id="lsIKuZ3ZhRhGVmktWw1N-20" value="- data: string" style="text;strokeColor=none;fillColor=none;align=left;verticalAlign=top;spacingLeft=4;spacingRight=4;overflow=hidden;rotatable=0;points=[[0,0.5],[1,0.5]];portConstraint=eastwest;" parent="lsIKuZ3ZhRhGVmktWw1N-15" vertex="1">
                    <mxGeometry y="52" width="166" height="26" as="geometry"/>
                </mxCell>
                <mxCell id="lsIKuZ3ZhRhGVmktWw1N-17" value="" style="line;strokeWidth=1;fillColor=none;align=left;verticalAlign=middle;spacingTop=-1;spacingLeft=3;spacingRight=3;rotatable=0;labelPosition=right;points=[];portConstraint=eastwest;" parent="lsIKuZ3ZhRhGVmktWw1N-15" vertex="1">
                    <mxGeometry y="78" width="166" height="8" as="geometry"/>
                </mxCell>
                <mxCell id="lsIKuZ3ZhRhGVmktWw1N-18" value="+ getCurrentIndex(): number" style="text;strokeColor=none;fillColor=none;align=left;verticalAlign=top;spacingLeft=4;spacingRight=4;overflow=hidden;rotatable=0;points=[[0,0.5],[1,0.5]];portConstraint=eastwest;" parent="lsIKuZ3ZhRhGVmktWw1N-15" vertex="1">
                    <mxGeometry y="86" width="166" height="26" as="geometry"/>
                </mxCell>
                <mxCell id="lsIKuZ3ZhRhGVmktWw1N-21" value="+ getDate(): string" style="text;strokeColor=none;fillColor=none;align=left;verticalAlign=top;spacingLeft=4;spacingRight=4;overflow=hidden;rotatable=0;points=[[0,0.5],[1,0.5]];portConstraint=eastwest;" parent="lsIKuZ3ZhRhGVmktWw1N-15" vertex="1">
                    <mxGeometry y="112" width="166" height="26" as="geometry"/>
                </mxCell>
                <mxCell id="lsIKuZ3ZhRhGVmktWw1N-23" value="Caretaker" style="swimlane;fontStyle=1;align=center;verticalAlign=top;childLayout=stackLayout;horizontal=1;startSize=26;horizontalStack=0;resizeParent=1;resizeParentMax=0;resizeLast=0;collapsible=1;marginBottom=0;" parent="V3Rp2c93oEQ9oE3x-klY-1" vertex="1">
                    <mxGeometry x="586" y="271" width="160" height="164" as="geometry"/>
                </mxCell>
                <mxCell id="lsIKuZ3ZhRhGVmktWw1N-24" value="- mementoList: Memento[]" style="text;strokeColor=none;fillColor=none;align=left;verticalAlign=top;spacingLeft=4;spacingRight=4;overflow=hidden;rotatable=0;points=[[0,0.5],[1,0.5]];portConstraint=eastwest;" parent="lsIKuZ3ZhRhGVmktWw1N-23" vertex="1">
                    <mxGeometry y="26" width="160" height="26" as="geometry"/>
                </mxCell>
                <mxCell id="ZZZxj6dey2HOlYJ6IaPq-1" value="- originator: Originator" style="text;strokeColor=none;fillColor=none;align=left;verticalAlign=top;spacingLeft=4;spacingRight=4;overflow=hidden;rotatable=0;points=[[0,0.5],[1,0.5]];portConstraint=eastwest;" parent="lsIKuZ3ZhRhGVmktWw1N-23" vertex="1">
                    <mxGeometry y="52" width="160" height="26" as="geometry"/>
                </mxCell>
                <mxCell id="lsIKuZ3ZhRhGVmktWw1N-25" value="" style="line;strokeWidth=1;fillColor=none;align=left;verticalAlign=middle;spacingTop=-1;spacingLeft=3;spacingRight=3;rotatable=0;labelPosition=right;points=[];portConstraint=eastwest;" parent="lsIKuZ3ZhRhGVmktWw1N-23" vertex="1">
                    <mxGeometry y="78" width="160" height="8" as="geometry"/>
                </mxCell>
                <mxCell id="lsIKuZ3ZhRhGVmktWw1N-26" value="+ Caretaker(o: Originator)" style="text;strokeColor=none;fillColor=none;align=left;verticalAlign=top;spacingLeft=4;spacingRight=4;overflow=hidden;rotatable=0;points=[[0,0.5],[1,0.5]];portConstraint=eastwest;" parent="lsIKuZ3ZhRhGVmktWw1N-23" vertex="1">
                    <mxGeometry y="86" width="160" height="26" as="geometry"/>
                </mxCell>
                <mxCell id="lsIKuZ3ZhRhGVmktWw1N-33" value="+ backup()" style="text;strokeColor=none;fillColor=none;align=left;verticalAlign=top;spacingLeft=4;spacingRight=4;overflow=hidden;rotatable=0;points=[[0,0.5],[1,0.5]];portConstraint=eastwest;" parent="lsIKuZ3ZhRhGVmktWw1N-23" vertex="1">
                    <mxGeometry y="112" width="160" height="26" as="geometry"/>
                </mxCell>
                <mxCell id="lsIKuZ3ZhRhGVmktWw1N-34" value="+ undo()" style="text;strokeColor=none;fillColor=none;align=left;verticalAlign=top;spacingLeft=4;spacingRight=4;overflow=hidden;rotatable=0;points=[[0,0.5],[1,0.5]];portConstraint=eastwest;" parent="lsIKuZ3ZhRhGVmktWw1N-23" vertex="1">
                    <mxGeometry y="138" width="160" height="26" as="geometry"/>
                </mxCell>
                <mxCell id="lsIKuZ3ZhRhGVmktWw1N-37" style="edgeStyle=orthogonalEdgeStyle;rounded=0;html=1;entryX=1;entryY=0.25;entryDx=0;entryDy=0;startArrow=diamondThin;startFill=0;endArrow=open;endFill=0;exitX=-0.002;exitY=0.086;exitDx=0;exitDy=0;exitPerimeter=0;" parent="V3Rp2c93oEQ9oE3x-klY-1" source="lsIKuZ3ZhRhGVmktWw1N-23" target="lsIKuZ3ZhRhGVmktWw1N-27" edge="1">
                    <mxGeometry relative="1" as="geometry">
                        <mxPoint x="576" y="285" as="sourcePoint"/>
                        <Array as="points">
                            <mxPoint x="576" y="285"/>
                            <mxPoint x="314" y="285"/>
                            <mxPoint x="314" y="363"/>
                        </Array>
                    </mxGeometry>
                </mxCell>
                <mxCell id="lsIKuZ3ZhRhGVmktWw1N-27" value="«interface»&#10;Originator" style="swimlane;fontStyle=1;align=center;verticalAlign=top;childLayout=stackLayout;horizontal=1;startSize=41;horizontalStack=0;resizeParent=1;resizeParentMax=0;resizeLast=0;collapsible=1;marginBottom=0;" parent="V3Rp2c93oEQ9oE3x-klY-1" vertex="1">
                    <mxGeometry x="84" y="340" width="165" height="93" as="geometry"/>
                </mxCell>
                <mxCell id="lsIKuZ3ZhRhGVmktWw1N-28" value="+ save(): Memento" style="text;strokeColor=none;fillColor=none;align=left;verticalAlign=top;spacingLeft=4;spacingRight=4;overflow=hidden;rotatable=0;points=[[0,0.5],[1,0.5]];portConstraint=eastwest;" parent="lsIKuZ3ZhRhGVmktWw1N-27" vertex="1">
                    <mxGeometry y="41" width="165" height="26" as="geometry"/>
                </mxCell>
                <mxCell id="lsIKuZ3ZhRhGVmktWw1N-29" value="+ restore(m: Memento)" style="text;strokeColor=none;fillColor=none;align=left;verticalAlign=top;spacingLeft=4;spacingRight=4;overflow=hidden;rotatable=0;points=[[0,0.5],[1,0.5]];portConstraint=eastwest;" parent="lsIKuZ3ZhRhGVmktWw1N-27" vertex="1">
                    <mxGeometry y="67" width="165" height="26" as="geometry"/>
                </mxCell>
                <mxCell id="lsIKuZ3ZhRhGVmktWw1N-35" style="edgeStyle=orthogonalEdgeStyle;rounded=0;html=1;exitX=0;exitY=0.5;exitDx=0;exitDy=0;entryX=1;entryY=0.25;entryDx=0;entryDy=0;endArrow=open;endFill=0;startArrow=diamondThin;startFill=0;" parent="V3Rp2c93oEQ9oE3x-klY-1" source="lsIKuZ3ZhRhGVmktWw1N-24" target="lsIKuZ3ZhRhGVmktWw1N-8" edge="1">
                    <mxGeometry relative="1" as="geometry"/>
                </mxCell>
                <mxCell id="lsIKuZ3ZhRhGVmktWw1N-36" value="0...*" style="text;html=1;resizable=0;autosize=1;align=center;verticalAlign=middle;points=[];fillColor=none;strokeColor=none;rounded=0;" parent="V3Rp2c93oEQ9oE3x-klY-1" vertex="1">
                    <mxGeometry x="502" y="342" width="31" height="18" as="geometry"/>
                </mxCell>
                <mxCell id="ZZZxj6dey2HOlYJ6IaPq-0" style="edgeStyle=orthogonalEdgeStyle;html=1;exitX=1;exitY=0.5;exitDx=0;exitDy=0;entryX=0;entryY=0.5;entryDx=0;entryDy=0;rounded=0;endArrow=open;endFill=0;" parent="V3Rp2c93oEQ9oE3x-klY-1" source="V3Rp2c93oEQ9oE3x-klY-5" target="lsIKuZ3ZhRhGVmktWw1N-20" edge="1">
                    <mxGeometry relative="1" as="geometry"/>
                </mxCell>
            </root>
        </mxGraphModel>
    </diagram>
</mxfile>